<svg xmlns="http://www.w3.org/2000/svg" xmlns:xlink="http://www.w3.org/1999/xlink" version="1.1" x="0px" y="0px" viewBox="0 0 64 80" style="enable-background:new 0 0 64 64;" xml:space="preserve"><style type="text/css">
	.st0{fill-rule:evenodd;clip-rule:evenodd;}
	.st1{fill:none;}
</style><g><path d="M51.5,29h-7.6c0-0.2,0.1-0.3,0.1-0.5v-9c0-2.5-2-4.5-4.5-4.5h-27C10,15,8,17,8,19.5v9C8,31,10,33,12.5,33h7.6   c0,0.2-0.1,0.3-0.1,0.5v9c0,2.5,2,4.5,4.5,4.5h3.8l2.8,3.8c0.1,0.1,0.2,0.2,0.4,0.2s0.3-0.1,0.4-0.2l2.8-3.8h16.8   c2.5,0,4.5-2,4.5-4.5v-9C56,31,54,29,51.5,29z M9,19.5c0-1.9,1.6-3.5,3.5-3.5h27c1.9,0,3.5,1.6,3.5,3.5v9c0,1.9-1.6,3.5-3.5,3.5h-4   c-0.2,0-0.3,0.1-0.4,0.2l-2.6,3.5l-2.6-3.5c-0.1-0.1-0.2-0.2-0.4-0.2h-17C10.6,32,9,30.4,9,28.5V19.5z M55,42.5   c0,1.9-1.6,3.5-3.5,3.5h-17c-0.2,0-0.3,0.1-0.4,0.2l-2.6,3.5l-2.6-3.5c-0.1-0.1-0.2-0.2-0.4-0.2h-4c-1.9,0-3.5-1.6-3.5-3.5v-9   c0-0.2,0-0.3,0.1-0.5h8.2l2.8,3.8c0.1,0.1,0.2,0.2,0.4,0.2s0.3-0.1,0.4-0.2l2.8-3.8h3.8c2,0,3.6-1.3,4.2-3h7.8   c1.9,0,3.5,1.6,3.5,3.5V42.5z"/><path d="M16.1,27.9c0.1,0.1,0.2,0.1,0.4,0.1s0.3,0,0.4-0.1s0.1-0.2,0.1-0.4s0-0.3-0.1-0.4l-3.3-3.3c-0.1-0.1-0.1-0.2-0.1-0.4   s0-0.3,0.1-0.4l3.3-3.3c0.1-0.1,0.1-0.2,0.1-0.4s0-0.3-0.1-0.4c-0.2-0.2-0.5-0.2-0.7,0l-3.3,3.3c-0.3,0.3-0.4,0.7-0.4,1.1   s0.1,0.8,0.4,1.1L16.1,27.9z"/><path d="M19.5,23C19.5,23,19.5,23,19.5,23c0.3,0,0.5-0.2,0.5-0.5l0-1c0-0.3,0.2-0.5,0.5-0.5h2c0.3,0,0.5,0.2,0.5,0.5v1   c0,0.3-0.2,0.5-0.5,0.5h-1c-0.3,0-0.5,0.2-0.5,0.5v1c0,0.3,0.2,0.5,0.5,0.5s0.5-0.2,0.5-0.5V24h0.5c0.8,0,1.5-0.7,1.5-1.5v-1   c0-0.8-0.7-1.5-1.5-1.5h-2c-0.8,0-1.5,0.7-1.5,1.5l0,1c0,0,0,0,0,0C19,22.8,19.2,23,19.5,23z"/><path d="M21.5,26L21.5,26c-0.3,0-0.5,0.2-0.5,0.5s0.2,0.5,0.5,0.5c0.3,0,0.5-0.2,0.5-0.5S21.8,26,21.5,26z"/><path d="M47.9,34.1c-0.2-0.2-0.5-0.2-0.7,0C47,34.2,47,34.4,47,34.5s0,0.3,0.1,0.4l3.3,3.3c0.1,0.1,0.1,0.2,0.1,0.4s0,0.3-0.1,0.4   l-3.3,3.3C47,42.2,47,42.4,47,42.5s0,0.3,0.1,0.4s0.2,0.1,0.4,0.1s0.3,0,0.4-0.1l3.3-3.3c0.3-0.3,0.4-0.7,0.4-1.1s-0.1-0.8-0.4-1.1   L47.9,34.1z"/><path d="M43.5,35h-2c-0.8,0-1.5,0.7-1.5,1.5l0,1c0,0,0,0,0,0c0,0.3,0.2,0.5,0.5,0.5c0,0,0,0,0,0c0.3,0,0.5-0.2,0.5-0.5l0-1   c0-0.3,0.2-0.5,0.5-0.5h2c0.3,0,0.5,0.2,0.5,0.5v1c0,0.3-0.2,0.5-0.5,0.5h-1c-0.3,0-0.5,0.2-0.5,0.5v1c0,0.3,0.2,0.5,0.5,0.5   s0.5-0.2,0.5-0.5V39h0.5c0.8,0,1.5-0.7,1.5-1.5v-1C45,35.7,44.3,35,43.5,35z"/><path d="M42.5,41L42.5,41c-0.3,0-0.5,0.2-0.5,0.5s0.2,0.5,0.5,0.5c0.3,0,0.5-0.2,0.5-0.5S42.8,41,42.5,41z"/><path d="M33.5,41L33.5,41c-0.3,0-0.5,0.2-0.5,0.5s0.2,0.5,0.5,0.5c0.3,0,0.5-0.2,0.5-0.5S33.8,41,33.5,41z"/><path d="M35.5,41L35.5,41c-0.3,0-0.5,0.2-0.5,0.5s0.2,0.5,0.5,0.5c0.3,0,0.5-0.2,0.5-0.5S35.8,41,35.5,41z"/><path d="M37.5,41L37.5,41c-0.3,0-0.5,0.2-0.5,0.5s0.2,0.5,0.5,0.5c0.3,0,0.5-0.2,0.5-0.5S37.8,41,37.5,41z"/><path d="M26.5,29c0.3,0,0.5-0.2,0.5-0.5V27h1.5c0.8,0,1.5-0.7,1.5-1.5v-2c0-0.8-0.7-1.5-1.5-1.5h-0.6c-0.3,0-0.7,0.1-0.9,0.3   c-0.1-0.2-0.3-0.3-0.5-0.3c-0.3,0-0.5,0.2-0.5,0.5v6C26,28.8,26.2,29,26.5,29z M27,23.7l0.6-0.6c0.1-0.1,0.2-0.1,0.4-0.1h0.6   c0.3,0,0.5,0.2,0.5,0.5v2c0,0.3-0.2,0.5-0.5,0.5H27V23.7z"/><path d="M36.5,29c0.3,0,0.5-0.2,0.5-0.5V27h1.5c0.8,0,1.5-0.7,1.5-1.5v-2c0-0.8-0.7-1.5-1.5-1.5h-0.6c-0.3,0-0.7,0.1-0.9,0.3   c-0.1-0.2-0.3-0.3-0.5-0.3c-0.3,0-0.5,0.2-0.5,0.5v6C36,28.8,36.2,29,36.5,29z M37,23.7l0.6-0.6c0.1-0.1,0.2-0.1,0.4-0.1h0.6   c0.3,0,0.5,0.2,0.5,0.5v2c0,0.3-0.2,0.5-0.5,0.5H37V23.7z"/><path d="M31.5,27c0.3,0,0.5-0.2,0.5-0.5v-2.8l0.6-0.6c0.1-0.1,0.2-0.1,0.4-0.1h0.6c0.3,0,0.5,0.2,0.5,0.5v3c0,0.3,0.2,0.5,0.5,0.5   s0.5-0.2,0.5-0.5v-3c0-0.8-0.7-1.5-1.5-1.5h-0.6c-0.3,0-0.7,0.1-0.9,0.3v-1.8c0-0.3-0.2-0.5-0.5-0.5S31,20.2,31,20.5v6   C31,26.8,31.2,27,31.5,27z"/></g><g><rect class="st1" width="64" height="64"/></g><text x="0" y="79" fill="#000000" font-size="5px" font-weight="bold" font-family="'Helvetica Neue', Helvetica, Arial-Unicode, Arial, Sans-serif">Created by Theysaurus</text><text x="0" y="84" fill="#000000" font-size="5px" font-weight="bold" font-family="'Helvetica Neue', Helvetica, Arial-Unicode, Arial, Sans-serif">from the Noun Project</text></svg>