<svg xmlns="http://www.w3.org/2000/svg" xmlns:xlink="http://www.w3.org/1999/xlink" version="1.1" x="0px" y="0px" viewBox="0 0 64 80" style="enable-background:new 0 0 64 64;" xml:space="preserve"><style type="text/css">
	.st0{fill-rule:evenodd;clip-rule:evenodd;}
	.st1{fill:none;}
</style><g><path d="M39.6,29.5c-0.2,0.2-0.3,0.5-0.1,0.7c0.1,0.1,0.3,0.2,0.4,0.2c0.1,0,0.2,0,0.3-0.1c1.6-1.1,3.2-2.4,4.6-3.9l6.6-6.6   c0.2-0.2,0.2-0.5,0-0.7s-0.5-0.2-0.7,0l-1.4,1.4l-0.7-0.7l1.1-1.1l0,0l1.3-1.3c0.1-0.1,0.2-0.3,0.1-0.5c-0.6-1.8-2-3.2-3.8-3.8   c-0.2-0.1-0.4,0-0.5,0.1L31.9,28L17,13.1c-0.1-0.1-0.3-0.2-0.5-0.1c-1.8,0.6-3.2,2-3.8,3.8c-0.1,0.2,0,0.4,0.1,0.5l14.9,14.9   l-8.5,8.5c0,0,0,0,0,0l-1.4,1.4c0,0,0,0,0,0c0,0,0,0,0,0.1l-3.8,6.1c-0.1,0.1-0.1,0.3-0.1,0.4c0,0,0,0,0,0.1l0,0   c-0.4,0.4-0.4,1,0,1.4s1,0.4,1.4,0l0,0c0,0,0,0,0.1,0c0,0,0.1,0,0.1,0c0.1,0,0.2,0,0.3-0.1l6.1-3.8c0,0,0,0,0.1,0c0,0,0,0,0,0   l9.9-9.9l11.2,11.2c0,0,0,0,0,0l0.1,0.1c0.1,0.1,0.2,0.1,0.3,0.1l5.9,2.4c0.1,0,0.1,0,0.2,0c0.1,0,0.3-0.1,0.4-0.1   C50,50,50,49.8,50,49.6l-2.4-5.9c0-0.1-0.1-0.2-0.1-0.3l-0.1-0.1c0,0,0,0,0,0L36.1,32.2l11.6-11.6l0.7,0.7L44,25.7   C42.7,27.1,41.2,28.4,39.6,29.5z M46.7,44.4l1.2,2.9c-0.4,0.2-0.7,0.6-0.9,0.9L44.1,47C44.7,45.9,45.6,45,46.7,44.4z M43.3,46.4   L32.6,35.8l2.8-2.8l10.7,10.7C44.9,44.3,43.9,45.3,43.3,46.4z M23.2,43.8c-0.6-1.2-1.6-2.2-2.8-2.8l25.5-25.5   c1.3,0.5,2.3,1.5,2.8,2.8L23.2,43.8z M18.9,42.3l0.6-0.6c1.3,0.5,2.3,1.5,2.8,2.8l-0.6,0.6C21.1,43.9,20.2,43,18.9,42.3z M15,48.5   l3.3-5.3c1.2,0.5,2.2,1.5,2.7,2.7l-5.3,3.3C15.4,48.9,15.2,48.7,15,48.5z M16.5,14l3.4,3.4C18.6,18,17.7,19,17,20.2l-3.4-3.4   C14.2,15.5,15.2,14.5,16.5,14z M20.6,18.2l10.5,10.5l-2.8,2.8L17.8,21C18.4,19.7,19.3,18.7,20.6,18.2z M50,16.9l-0.6,0.6   c-0.6-1.2-1.6-2.2-2.8-2.8l0.6-0.6C48.5,14.7,49.4,15.6,50,16.9z"/></g><g><rect class="st1" width="64" height="64"/></g><text x="0" y="79" fill="#000000" font-size="5px" font-weight="bold" font-family="'Helvetica Neue', Helvetica, Arial-Unicode, Arial, Sans-serif">Created by Theysaurus</text><text x="0" y="84" fill="#000000" font-size="5px" font-weight="bold" font-family="'Helvetica Neue', Helvetica, Arial-Unicode, Arial, Sans-serif">from the Noun Project</text></svg>