<svg xmlns="http://www.w3.org/2000/svg" xmlns:xlink="http://www.w3.org/1999/xlink" version="1.1" x="0px" y="0px" viewBox="0 0 64 80" style="enable-background:new 0 0 64 64;" xml:space="preserve"><style type="text/css">
	.st0{fill-rule:evenodd;clip-rule:evenodd;}
	.st1{fill:none;}
</style><g><polygon points="49,49 48.5,49 48.5,50 50,50 50,48.5 49,48.5  "/><rect x="29" y="49" width="2" height="1"/><rect x="37" y="49" width="2" height="1"/><rect x="45" y="49" width="2" height="1"/><rect x="41" y="49" width="2" height="1"/><rect x="33" y="49" width="2" height="1"/><rect x="25" y="49" width="2" height="1"/><rect x="17" y="49" width="2" height="1"/><rect x="21" y="49" width="2" height="1"/><polygon points="15,48.5 14,48.5 14,50 15.5,50 15.5,49 15,49  "/><rect x="14" y="45" width="1" height="2"/><rect x="14" y="21" width="1" height="2"/><rect x="14" y="25" width="1" height="2"/><rect x="14" y="17" width="1" height="2"/><rect x="14" y="33" width="1" height="2"/><rect x="14" y="41" width="1" height="2"/><rect x="14" y="37" width="1" height="2"/><rect x="14" y="29" width="1" height="2"/><polygon points="14,15.5 15,15.5 15,15 15.5,15 15.5,14 14,14  "/><rect x="21" y="14" width="2" height="1"/><rect x="41" y="14" width="2" height="1"/><rect x="25" y="14" width="2" height="1"/><rect x="45" y="14" width="2" height="1"/><rect x="37" y="14" width="2" height="1"/><rect x="17" y="14" width="2" height="1"/><rect x="33" y="14" width="2" height="1"/><rect x="29" y="14" width="2" height="1"/><polygon points="48.5,15 49,15 49,15.5 50,15.5 50,14 48.5,14  "/><rect x="49" y="41" width="1" height="2"/><rect x="49" y="37" width="1" height="2"/><rect x="49" y="17" width="1" height="2"/><rect x="49" y="45" width="1" height="2"/><rect x="49" y="33" width="1" height="2"/><rect x="49" y="29" width="1" height="2"/><rect x="49" y="21" width="1" height="2"/><rect x="49" y="25" width="1" height="2"/><path d="M18,46h9V25h-9V46z M19,26h7v19h-7V26z"/><path d="M46,18H18v5h28V18z M45,22H19v-3h26V22z"/><path d="M46,46V25H29v21H46z M30,26h15v19H30V26z"/><rect x="42.1" y="31.9" width="1" height="1"/><rect x="34" y="32" width="1" height="1"/><rect x="38" y="32" width="1" height="1"/><rect x="36" y="32" width="1" height="1"/><rect x="40" y="32" width="1" height="1"/><rect x="32" y="31.9" width="1" height="1"/><rect x="32" y="30" width="1" height="1"/><rect x="32" y="28" width="1" height="1"/><rect x="36" y="28" width="1" height="1"/><rect x="40" y="28" width="1" height="1"/><rect x="34" y="28" width="1" height="1"/><rect x="38" y="28" width="1" height="1"/><rect x="42.1" y="28" width="1" height="1"/><rect x="42" y="30" width="1" height="1"/></g><g><rect class="st1" width="64" height="64"/></g><text x="0" y="79" fill="#000000" font-size="5px" font-weight="bold" font-family="'Helvetica Neue', Helvetica, Arial-Unicode, Arial, Sans-serif">Created by Theysaurus</text><text x="0" y="84" fill="#000000" font-size="5px" font-weight="bold" font-family="'Helvetica Neue', Helvetica, Arial-Unicode, Arial, Sans-serif">from the Noun Project</text></svg>